<svg width="45" height="41" viewBox="0 0 45 41" fill="none" xmlns="http://www.w3.org/2000/svg">
<g clip-path="url(#clip0)">
<path d="M11.8122 10.3875L21.2772 40.5675L22.4172 34.44L16.4172 2.24253C16.3437 1.84797 16.1809 1.47544 15.9413 1.15342C15.7017 0.831408 15.3917 0.568453 15.0349 0.384631C14.6781 0.200809 14.284 0.10099 13.8828 0.0928294C13.4815 0.0846692 13.0837 0.168362 12.7197 0.337527C11.4892 0.908618 10.3055 1.57568 9.17969 2.33253L11.8122 10.3875Z" fill="#72D8C8"/>
<path d="M20.8651 40.6876L4.98011 5.74512C3.25547 7.46022 1.72385 9.35903 0.412617 11.4076C0.135705 11.8327 -0.0117188 12.329 -0.0117188 12.8364C-0.0117188 13.3437 0.135705 13.84 0.412617 14.2651L17.4076 39.9076C17.5705 40.1419 17.7882 40.3328 18.0419 40.4635C18.2955 40.5943 18.5773 40.6609 18.8626 40.6576L20.8651 40.6876Z" fill="#955EEF"/>
<path d="M21.278 40.5676L11.813 10.4101L9.17297 2.31763C7.67008 3.3276 6.26631 4.47774 4.98047 5.75262L20.8655 40.6951H21.248L21.278 40.5676Z" fill="#72D8C8"/>
<path d="M21.278 40.5676L11.813 10.4101L9.17297 2.31763C7.67008 3.3276 6.26631 4.47774 4.98047 5.75262L20.8655 40.6951H21.248L21.278 40.5676Z" fill="#4350BB"/>
<path d="M23.5645 40.5676L33.0294 10.4101L35.692 2.24256C34.5565 1.48868 33.3627 0.826591 32.122 0.262572C31.7587 0.0962732 31.3623 0.0148355 30.9629 0.0244429C30.5635 0.0340503 30.1715 0.134435 29.8167 0.318007C29.4618 0.501579 29.1534 0.763533 28.9148 1.08398C28.6762 1.40443 28.5136 1.77497 28.4395 2.16755L22.4395 34.4176L23.5645 40.5676Z" fill="#955EEF"/>
<path d="M23.5215 40.6877L23.5665 40.5452L22.419 34.4102L21.2715 40.5452L21.324 40.6877H23.5215Z" fill="#955EEF"/>
<path d="M39.9063 5.63257L23.9688 40.6876H25.9337C26.2202 40.6914 26.5033 40.6251 26.7582 40.4943C27.0132 40.3636 27.2322 40.1725 27.3963 39.9376L44.4737 14.1751C44.7511 13.7474 44.8986 13.2485 44.8986 12.7388C44.8986 12.2291 44.7511 11.7303 44.4737 11.3026C43.165 9.24988 41.6332 7.34831 39.9063 5.63257Z" fill="#72D8C8"/>
<path d="M23.9695 40.6875L39.8995 5.63248C38.6035 4.36649 37.1924 3.22403 35.6845 2.21997L33.022 10.3875L23.5645 40.5675V40.71L23.9695 40.6875Z" fill="#955EEF"/>
<path d="M35.694 2.21997L33.0315 10.3875L23.5665 40.5675L23.5215 40.71H23.9715L39.9015 5.65498C38.6089 4.38154 37.2003 3.23154 35.694 2.21997Z" fill="#4350BB"/>
</g>
<defs>
<clipPath id="clip0">
<rect width="45" height="40.5" fill="white"/>
</clipPath>
</defs>
</svg>
